<?xml version="1.0" encoding="UTF-8"?>
<svg id="Layer_1" data-name="Layer 1" xmlns="http://www.w3.org/2000/svg" viewBox="0 0 1121.21 483.08">
  <defs>
    <style>
      .cls-1 {
        fill: currentColor;
      }
    </style>
  </defs>
  <path class="cls-1" d="M300.7,310.55l-137.63-155.28h28.92l112.32,125.9v-125.9h21.82v155.28h-25.43Z"/>
  <path class="cls-1" d="M351.64,180.88v-25.6h21.82v25.6h-21.82ZM351.64,310.55v-116.25h21.82v116.25h-21.82Z"/>
  <path class="cls-1" d="M422.45,214.24v96.31h-21.82v-155.28h21.82v39.03h29.2v19.93h-29.2Z"/>
  <path class="cls-1" d="M552.07,310.55v-18.05h-.42c-8.18,14.06-23.5,20.98-39.45,20.98-34.83,0-61.69-25.6-61.69-60.64s26.44-61.69,61.69-61.69c15.53,0,30.85,6.3,39.45,19.51h.42v-16.37h21.82v116.25h-21.82ZM512.2,211.09c-23.08,0-39.87,18.89-39.87,41.55s17.42,40.92,39.66,40.92,40.5-18.46,40.5-40.92-16.58-41.55-40.29-41.55Z"/>
  <path class="cls-1" d="M647.97,313.49c-34.62,0-59.59-27.28-59.59-61.27s25.39-61.06,59.8-61.06c24.97,0,50.57,16.79,57.07,41.76h-24.13c-6.5-13.64-17.21-21.82-32.73-21.82-23.92,0-38.19,18.26-38.19,41.13s14.48,41.34,37.77,41.34c14.9,0,26.86-7.97,32.94-21.4h24.34c-8.6,24.97-30.64,41.34-57.28,41.34Z"/>
  <path class="cls-1" d="M777.77,313.49c-34.2,0-62.74-27.49-62.74-61.9s29.17-60.43,62.74-60.43,62.74,26.44,62.74,60.85-27.49,61.48-62.74,61.48ZM777.77,211.09c-22.66,0-40.92,18.47-40.92,41.13s18.26,41.34,40.92,41.34,40.92-18.88,40.92-41.55-18.26-40.92-40.92-40.92Z"/>
  <path class="cls-1" d="M936.32,310.55v-63.16c0-19.72-5.88-36.3-28.96-36.3-21.4,0-30.64,16.58-30.64,36.09v63.37h-21.82v-116.25h20.35v12.38h.42c8.39-11.12,20.56-15.53,33.99-15.53,16.58,0,32.1,6.5,41.13,20.77,5.67,8.81,7.34,19.51,7.34,29.8v68.83h-21.82Z"/>
</svg>