<svg width="154" height="32" viewBox="0 0 154 32" fill="none" xmlns="http://www.w3.org/2000/svg">
<path d="M83.5039 24.3032C86.9599 24.3032 89.1485 22.7193 89.1485 20.185V20.1272C89.1485 17.6508 86.9885 16.2107 83.0145 16.2107H76.189V24.3032H83.5039ZM82.8414 14.8282C85.8657 14.8282 88.0252 13.3595 88.0252 10.6811V10.6236C88.0252 8.40601 86.2109 6.90846 82.9853 6.90846H76.189V14.8282H82.8414ZM74.6914 5.5262H83.0145C85.2892 5.5262 87.1324 6.18844 88.2557 7.31181C89.091 8.14684 89.5519 9.21242 89.5519 10.4797V10.5372C89.5519 13.2731 87.7663 14.6557 86.1248 15.3179C88.5438 15.9515 90.6747 17.3338 90.6747 20.1272V20.185C90.6747 23.5546 87.7949 25.6855 83.4461 25.6855H74.6914V5.5262Z" fill="#1D1EB7"/>
<path d="M92.7168 10.9989H94.1282V15.1746C95.2802 12.5539 97.7281 10.6533 100.636 10.7686V12.3237H100.493C97.0942 12.3237 94.1282 14.8868 94.1282 19.6672V25.6866H92.7168V10.9989Z" fill="#1D1EB7"/>
<path d="M114.349 18.3987V18.3412C114.349 14.7989 111.699 11.9766 108.301 11.9766C104.816 11.9766 102.311 14.8275 102.311 18.2834V18.3412C102.311 21.8836 104.96 24.7059 108.358 24.7059C111.843 24.7059 114.349 21.8547 114.349 18.3987ZM100.784 18.3987V18.3412C100.784 14.223 103.981 10.6518 108.358 10.6518C112.707 10.6518 115.875 14.1653 115.875 18.2834V18.3412C115.875 22.4594 112.678 26.0306 108.301 26.0306C103.952 26.0306 100.784 22.5172 100.784 18.3987Z" fill="#1D1EB7"/>
<path d="M117.774 4.66325H119.186V20.4165L128.286 10.999H130.158L123.736 17.5075L130.36 25.6867H128.574L122.757 18.5156L119.186 22.1155V25.6867H117.774V4.66325Z" fill="#1D1EB7"/>
<path d="M142.63 17.6501C142.429 14.6836 140.73 11.9477 137.36 11.9477C134.451 11.9477 132.205 14.3958 131.946 17.6501H142.63ZM130.448 18.3701V18.3123C130.448 14.0503 133.443 10.6518 137.418 10.6518C141.536 10.6518 144.157 13.9925 144.157 18.3412C144.157 18.6004 144.157 18.6868 144.128 18.9174H131.946C132.205 22.5747 134.826 24.7059 137.706 24.7059C139.981 24.7059 141.536 23.6978 142.746 22.4019L143.725 23.2658C142.227 24.8787 140.471 26.0306 137.648 26.0306C133.789 26.0306 130.448 22.9492 130.448 18.3701Z" fill="#1D1EB7"/>
<path d="M145.826 10.9989H147.237V15.1746C148.389 12.5539 150.837 10.6533 153.745 10.7686V12.3237H153.601C150.203 12.3237 147.237 14.8868 147.237 19.6672V25.6866H145.826V10.9989Z" fill="#1D1EB7"/>
<path d="M37.0928 6.31396H40.7184L46.6137 15.4751L52.509 6.31396H56.1346V25.688H52.7305V11.794L46.6137 20.9277H46.5029L40.4417 11.8495V25.688H37.0928V6.31396Z" fill="#1D1EB7"/>
<path d="M57.9025 29.3123L59.0372 26.8214C59.6462 27.1533 60.3107 27.3748 61.0024 27.3748C61.9436 27.3748 62.5248 26.9596 63.0783 25.6864L56.9893 11.0729H60.5596L64.7112 21.9225L68.5028 11.0729H71.9902L66.1779 26.1016C65.0155 29.0908 63.7148 30.198 61.3624 30.198C59.9506 30.198 58.9267 29.8657 57.9025 29.3123Z" fill="#1D1EB7"/>
<path d="M26.9774 16.6469C26.9745 16.6498 26.9717 16.6552 26.9691 16.6577L24.8326 18.7943L19.9408 23.6863H19.938L18.6738 24.953L16.6101 27.0168C16.4319 27.1626 16.2025 27.2516 15.9512 27.2516C15.6677 27.2516 15.4082 27.1354 15.2219 26.9491L13.2122 24.9422L10.6814 22.4111L10.1166 21.844L9.55486 21.2849L7.01835 18.7458L5.30582 17.0333H10.4058C10.6202 17.0333 10.8258 17.1183 10.9776 17.2695L11.5212 17.8111L12.8341 19.1211L14.1685 20.453L15.3587 21.6432C15.6754 21.9599 16.1889 21.9596 16.5053 21.6426L17.1964 20.9498L21.7021 16.3815C21.7607 16.3223 21.6885 16.228 21.616 16.2688L20.2541 17.0333L16.5752 19.0996L16.3724 19.2157L16.3671 19.2186C16.2455 19.2698 16.1104 19.2968 15.9702 19.2968C15.6838 19.2968 15.4244 19.1806 15.238 18.9942L12.9312 16.6928L12.9287 16.6875C12.78 16.5065 12.691 16.277 12.691 16.0229C12.691 15.8394 12.7369 15.6692 12.8176 15.5205L13.1312 14.9667L15.7306 10.3701C15.7714 10.2982 15.6776 10.2256 15.6181 10.2834L11.0278 14.7381C10.8765 14.8848 10.674 14.9667 10.4633 14.9667H5.30582L6.98606 13.2839L8.25021 12.0198L13.1556 7.11442L15.219 5.05093C15.4054 4.86455 15.662 4.74842 15.9484 4.74842C16.2348 4.74842 16.4914 4.86455 16.6778 5.05093C16.6778 5.05093 20.238 8.61111 20.2459 8.61905C20.2459 8.61905 20.3838 8.75699 20.3918 8.76775C20.5781 8.98925 20.6889 9.27562 20.6889 9.5889C20.6889 9.85629 20.6079 10.1047 20.4674 10.3129L20.3918 10.4126L18.7036 12.6627L17.2689 14.5721C17.2191 14.6384 17.3023 14.7223 17.3689 14.673L19.2899 13.2488L21.5183 11.585L21.6857 11.4606C21.8828 11.3366 22.1179 11.2663 22.3663 11.2663C22.6745 11.2663 22.958 11.3717 23.1795 11.5527L23.3738 11.747L24.8785 13.2516L25.6376 14.0107L26.9691 15.3423C27.115 15.5205 27.2042 15.7502 27.2042 15.9986C27.2042 16.2444 27.1176 16.4713 26.9774 16.6469ZM16.2549 0C7.41859 0 0.254883 7.16342 0.254883 16C0.254883 24.8366 7.41859 32 16.2549 32C25.0917 32 32.2552 24.8366 32.2552 16C32.2552 7.16342 25.0917 0 16.2549 0Z" fill="#1D1EB7"/>
</svg>
